<svg xmlns="http://www.w3.org/2000/svg" width="267.079" height="366.087" viewBox="0 0 267.079 366.087">
  <g id="Group_46" data-name="Group 46" transform="translate(-1162.223 -179.756)">
    <path id="Path_77" data-name="Path 77" d="M1047.45,742.362l1.1-67.518,45.656-83.528-45.479,72.937.493-30.359,31.462-60.431-31.335,52.4h0l.885-54.6,33.7-48.112-33.562,39.526.557-100.118L1047.45,595.1l.279-5.468-34.258-52.438,33.714,62.934-3.2,60.98-.088-1.619L1004.4,604.3l39.369,60.9-.392,7.626-.076.115.038.626-8.1,154.712h10.816l1.291-79.912,39.28-60.753Z" transform="translate(257.867 -282.8)" fill="#3f3d56"/>
    <path id="Path_76" data-name="Path 76" d="M1207.989,668.361c0,80.674-47.96,108.843-107.121,108.843S993.747,749.035,993.747,668.361s107.121-183.3,107.121-183.3S1207.989,587.685,1207.989,668.361Z" transform="translate(208.358 -305.3)" fill="#e9e4e4"/>
    <ellipse id="Ellipse_73" data-name="Ellipse 73" cx="133.539" cy="8.206" rx="133.539" ry="8.206" transform="translate(1162.223 529.429)" fill="#3f3d56"/>
  </g>
</svg>
