<svg xmlns="http://www.w3.org/2000/svg" width="41.561" height="49.854" viewBox="0 0 41.561 49.854">
  <g id="lightbulb" transform="translate(-35.966)">
    <g id="Group_28" data-name="Group 28" transform="translate(35.966)">
      <g id="Group_27" data-name="Group 27">
        <path id="Path_37" data-name="Path 37" d="M118.15,93.2a12.84,12.84,0,0,0-8.486,22.46c2.029,2.029,1.845,6.364,1.8,6.41a.764.764,0,0,0,.231.6.851.851,0,0,0,.553.231h11.76a.764.764,0,0,0,.553-.231.877.877,0,0,0,.231-.6c0-.046-.231-4.381,1.8-6.41l.138-.138A12.8,12.8,0,0,0,118.15,93.2Zm7.379,21.261c-.046.046-.138.138-.138.184-1.8,1.937-2.121,5.119-2.168,6.641H113.031c-.046-1.522-.369-4.842-2.306-6.825a11.23,11.23,0,1,1,14.8,0Z" transform="translate(-97.332 -82.454)" fill="#231f20"/>
        <path id="Path_38" data-name="Path 38" d="M210.113,121.6a.784.784,0,1,0,0,1.568,8.394,8.394,0,0,1,8.394,8.394.784.784,0,1,0,1.568,0A9.92,9.92,0,0,0,210.113,121.6Z" transform="translate(-189.341 -107.58)" fill="#02a9f3"/>
        <path id="Path_39" data-name="Path 39" d="M167.1,358.4H156.866a1.937,1.937,0,1,0,0,3.874h10.192a1.989,1.989,0,0,0,1.983-1.937A1.949,1.949,0,0,0,167.1,358.4Zm0,2.26H156.866a.364.364,0,0,1-.369-.369.339.339,0,0,1,.369-.369h10.192a.364.364,0,0,1,.369.369A.329.329,0,0,1,167.1,360.66Z" transform="translate(-141.213 -317.078)" fill="#231f20"/>
        <path id="Path_40" data-name="Path 40" d="M177.26,398.8h-7.194a1.937,1.937,0,1,0,0,3.874h7.194a1.949,1.949,0,0,0,1.937-1.937A1.919,1.919,0,0,0,177.26,398.8Zm0,2.26h-7.194a.364.364,0,0,1-.369-.369.339.339,0,0,1,.369-.369h7.194a.369.369,0,1,1,0,.738Z" transform="translate(-152.891 -352.82)" fill="#231f20"/>
        <path id="Path_41" data-name="Path 41" d="M210.113,6.918a.777.777,0,0,0,.784-.784V.784a.784.784,0,0,0-1.568,0v5.35A.808.808,0,0,0,210.113,6.918Z" transform="translate(-189.341)" fill="#02a9f3"/>
        <path id="Path_42" data-name="Path 42" d="M297.307,33.262a.744.744,0,0,0-1.061.184l-2.952,4.427a.76.76,0,0,0,.184,1.107.744.744,0,0,0,.415.138.736.736,0,0,0,.646-.369l2.952-4.427A.715.715,0,0,0,297.307,33.262Z" transform="translate(-263.483 -29.295)" fill="#02a9f3"/>
        <path id="Path_43" data-name="Path 43" d="M106.715,36.985a.744.744,0,0,0,.415-.138.808.808,0,0,0,.231-1.107L104.5,31.266a.8.8,0,1,0-1.337.876l2.859,4.473A.765.765,0,0,0,106.715,36.985Z" transform="translate(-95.305 -27.346)" fill="#02a9f3"/>
        <path id="Path_44" data-name="Path 44" d="M41.8,105.912l-4.658-2.536a.812.812,0,0,0-1.061.323.736.736,0,0,0,.323,1.061l4.658,2.537a1.085,1.085,0,0,0,.369.092.761.761,0,0,0,.692-.415A.812.812,0,0,0,41.8,105.912Z" transform="translate(-35.966 -91.385)" fill="#02a9f3"/>
        <path id="Path_45" data-name="Path 45" d="M348.392,103.7a.812.812,0,0,0-1.061-.323l-4.7,2.536a.812.812,0,0,0-.323,1.061.761.761,0,0,0,.692.415.869.869,0,0,0,.369-.092l4.7-2.537A.812.812,0,0,0,348.392,103.7Z" transform="translate(-306.913 -91.385)" fill="#02a9f3"/>
      </g>
    </g>
  </g>
</svg>
