<svg xmlns="http://www.w3.org/2000/svg" width="31.646" height="43.837" viewBox="0 0 31.646 43.837">
  <g id="mobile-app-developing" transform="translate(-68.13)">
    <path id="Path_34" data-name="Path 34" d="M92.645,29.034a.9.9,0,0,0-.895.895v3.984H69.919V6.467H91.75v4.117a.895.895,0,0,0,1.789,0V.895A.9.9,0,0,0,92.645,0H69.025a.9.9,0,0,0-.895.895V42.942a.9.9,0,0,0,.895.895h23.62a.9.9,0,0,0,.895-.895V29.929A.9.9,0,0,0,92.645,29.034ZM91.75,1.789V4.678H69.919V1.789ZM69.919,42.047V35.7H91.75v6.345Z"/>
    <ellipse id="Ellipse_58" data-name="Ellipse 58" cx="1.352" cy="1.354" rx="1.352" ry="1.354" transform="translate(79.489 37.458)"/>
    <path id="Path_35" data-name="Path 35" d="M146.818,211.457a.894.894,0,0,0-1.149-.531l-.576.212a4.387,4.387,0,0,0-.272-.386l.393-.472a.895.895,0,1,0-1.375-1.146l-.392.471a4.316,4.316,0,0,0-.429-.2l.1-.6a.895.895,0,1,0-1.763-.3l-.1.6a4.266,4.266,0,0,0-.471.044l-.211-.575a.895.895,0,1,0-1.679.619l.212.576a4.352,4.352,0,0,0-.386.273l-.472-.393a.9.9,0,0,0-1.145,1.377l.47.392a4.276,4.276,0,0,0-.2.43l-.6-.1a.9.9,0,0,0-1.034.731h0a.9.9,0,0,0,.729,1.035l.6.1a4.34,4.34,0,0,0,.044.472l-.574.212a.9.9,0,0,0,.618,1.681l.576-.212a4.341,4.341,0,0,0,.272.386l-.393.472a.895.895,0,1,0,1.375,1.146l.392-.471a4.317,4.317,0,0,0,.43.2l-.1.6a.895.895,0,1,0,1.763.3l.1-.6a4.3,4.3,0,0,0,.471-.044l.211.575a.895.895,0,1,0,1.679-.619l-.212-.577a4.346,4.346,0,0,0,.386-.273l.472.393a.9.9,0,0,0,1.145-1.377l-.47-.392a4.326,4.326,0,0,0,.2-.43l.6.1a.9.9,0,0,0,1.034-.731h0a.9.9,0,0,0-.729-1.035l-.6-.1a4.27,4.27,0,0,0-.044-.472l.574-.212A.9.9,0,0,0,146.818,211.457Zm-2.885,2.428h0a2.557,2.557,0,1,1-5.04-.869h0a2.557,2.557,0,1,1,5.04.869Z" transform="translate(-61.548 -189.169)" fill="#02a9f3"/>
    <path id="Path_36" data-name="Path 36" d="M275.8,152.031h-.993a5.288,5.288,0,0,0-.255-.956l.86-.5a.895.895,0,0,0-.9-1.549l-.861.5a5.38,5.38,0,0,0-.7-.7l.5-.864a.895.895,0,0,0-1.55-.894l-.5.861a5.268,5.268,0,0,0-.952-.255v-1a.895.895,0,0,0-1.789,0v1a5.266,5.266,0,0,0-.952.255l-.5-.861a.895.895,0,0,0-1.55.894l.5.864a5.374,5.374,0,0,0-.7.7l-.861-.5a.895.895,0,0,0-.9,1.549l.86.5a5.293,5.293,0,0,0-.255.956h-.993a.9.9,0,0,0-.895.895h0a.9.9,0,0,0,.895.895h.993a5.286,5.286,0,0,0,.255.956l-.86.5a.895.895,0,0,0,.9,1.549l.861-.5a5.378,5.378,0,0,0,.7.7l-.5.864a.895.895,0,0,0,1.55.894l.5-.861a5.276,5.276,0,0,0,.952.255v1a.895.895,0,0,0,1.789,0v-1a5.266,5.266,0,0,0,.952-.255l.5.861a.895.895,0,0,0,1.55-.894l-.5-.864a5.373,5.373,0,0,0,.7-.7l.861.5a.895.895,0,1,0,.9-1.549l-.86-.5a5.291,5.291,0,0,0,.255-.956h.993a.9.9,0,0,0,.895-.895h0A.9.9,0,0,0,275.8,152.031Zm-2.706.895h0a3.531,3.531,0,1,1-7.062,0h0a3.531,3.531,0,1,1,7.062,0Z" transform="translate(-176.923 -132.745)" fill="#02a9f3"/>
  </g>
</svg>
