<svg xmlns="http://www.w3.org/2000/svg" width="625.995" height="477.043" viewBox="0 0 625.995 477.043">
  <g id="undraw_good_team_m7uu" transform="translate(0 10)">
    <line id="Line_7" data-name="Line 7" x2="80.78" transform="translate(218.754 143.206)" fill="none" stroke="#3f3d56" stroke-miterlimit="10" stroke-width="2"/>
    <ellipse id="Ellipse_3" data-name="Ellipse 3" cx="22.158" cy="6.956" rx="22.158" ry="6.956" transform="translate(101.612 248.089) rotate(-69.082)" fill="#2f2e41"/>
    <path id="Path_1" data-name="Path 1" d="M976.062,422.665c8.788,65.4-3.179,130.877-64.045,156.372a119.488,119.488,0,0,1-156.373-64.045c-25.495-60.866,34.659-97.286,64.045-156.372C879.362,238.633,948.771,219.558,976.062,422.665Z" transform="translate(-352.635 -136.966)" fill="#f2f2f2"/>
    <ellipse id="Ellipse_4" data-name="Ellipse 4" cx="95.365" cy="12.974" rx="95.365" ry="12.974" transform="translate(418.484 432.681)" fill="#3f3d56"/>
    <rect id="Rectangle_16" data-name="Rectangle 16" width="13.463" height="24.122" transform="translate(455.046 425.612) rotate(-105.453)" fill="#2f2e41"/>
    <ellipse id="Ellipse_5" data-name="Ellipse 5" cx="4.207" cy="11.219" rx="4.207" ry="11.219" transform="translate(443.031 407.397) rotate(-15.453)" fill="#2f2e41"/>
    <ellipse id="Ellipse_6" data-name="Ellipse 6" cx="22.158" cy="6.956" rx="22.158" ry="6.956" transform="matrix(0.134, -0.991, 0.991, 0.134, 508.083, 388.093)" fill="#2f2e41"/>
    <circle id="Ellipse_7" data-name="Ellipse 7" cx="44.317" cy="44.317" r="44.317" transform="translate(469.299 364.237)" fill="#2f2e41"/>
    <rect id="Rectangle_17" data-name="Rectangle 17" width="13.463" height="24.122" transform="translate(455.046 417.759) rotate(-105.453)" fill="#2f2e41"/>
    <ellipse id="Ellipse_8" data-name="Ellipse 8" cx="4.207" cy="11.219" rx="4.207" ry="11.219" transform="translate(443.031 399.544) rotate(-15.453)" fill="#2f2e41"/>
    <circle id="Ellipse_9" data-name="Ellipse 9" cx="15.146" cy="15.146" r="15.146" transform="translate(510.106 368.02)" fill="#fff"/>
    <circle id="Ellipse_10" data-name="Ellipse 10" cx="5.049" cy="5.049" r="5.049" transform="translate(525.047 371.427)" fill="#3f3d56"/>
    <path id="Path_2" data-name="Path 2" d="M1032.028,764.977c16.4-.821,28.96-16.16,28.054-34.262s-14.935-32.11-31.335-31.29-18.973,13.695-18.067,31.8S1015.625,765.8,1032.028,764.977Z" transform="translate(-467.234 -325.969)" fill="#02a9f3"/>
    <path id="Path_3" data-name="Path 3" d="M916.8,712.814a10.1,10.1,0,1,1-1.629-20.129c5.559-.45,7.074,3.963,7.524,9.521S922.359,712.364,916.8,712.814Z" transform="translate(-421.297 -323.01)" fill="#fff"/>
    <path id="Path_4" data-name="Path 4" d="M49.464,340.33H297.689l38.484,18.749,61.317,29.873,40.091-75.064H551.033" transform="translate(-21.716 -137.806)" fill="none" stroke="#3f3d56" stroke-miterlimit="10" stroke-width="2"/>
    <circle id="Ellipse_11" data-name="Ellipse 11" cx="7.677" cy="7.677" r="7.677" transform="translate(117.313 202.701)" fill="#02a9f3"/>
    <circle id="Ellipse_12" data-name="Ellipse 12" cx="7.677" cy="7.677" r="7.677" transform="translate(188.966 194.847)" fill="#02a9f3"/>
    <circle id="Ellipse_13" data-name="Ellipse 13" cx="7.677" cy="7.677" r="7.677" transform="translate(306.681 213.613)" fill="#02a9f3"/>
    <circle id="Ellipse_14" data-name="Ellipse 14" cx="7.677" cy="7.677" r="7.677" transform="translate(472.165 168.404)" fill="#02a9f3"/>
    <circle id="Ellipse_15" data-name="Ellipse 15" cx="7.677" cy="7.677" r="7.677" transform="translate(391.982 198.259)" fill="#02a9f3"/>
    <circle id="Ellipse_16" data-name="Ellipse 16" cx="8.277" cy="8.277" r="8.277" transform="translate(231.58 317.893)" fill="none" stroke="#3f3d56" stroke-miterlimit="10" stroke-width="2"/>
    <ellipse id="Ellipse_17" data-name="Ellipse 17" cx="95.365" cy="12.974" rx="95.365" ry="12.974" transform="translate(0 441.096)" fill="#3f3d56"/>
    <circle id="Ellipse_18" data-name="Ellipse 18" cx="44.317" cy="44.317" r="44.317" transform="translate(45.89 346.363)" fill="#2f2e41"/>
    <rect id="Rectangle_18" data-name="Rectangle 18" width="13.463" height="24.122" transform="translate(70.012 425.46)" fill="#2f2e41"/>
    <rect id="Rectangle_19" data-name="Rectangle 19" width="13.463" height="24.122" transform="translate(96.938 425.46)" fill="#2f2e41"/>
    <ellipse id="Ellipse_19" data-name="Ellipse 19" cx="11.219" cy="4.207" rx="11.219" ry="4.207" transform="translate(70.012 445.655)" fill="#2f2e41"/>
    <ellipse id="Ellipse_20" data-name="Ellipse 20" cx="11.219" cy="4.207" rx="11.219" ry="4.207" transform="translate(96.938 445.094)" fill="#2f2e41"/>
    <circle id="Ellipse_21" data-name="Ellipse 21" cx="15.146" cy="15.146" r="15.146" transform="translate(76.183 364.314)" fill="#fff"/>
    <circle id="Ellipse_22" data-name="Ellipse 22" cx="5.049" cy="5.049" r="5.049" transform="translate(86.28 374.411)" fill="#3f3d56"/>
    <path id="Path_5" data-name="Path 5" d="M125.7,627.7c-3.578-16.026,7.86-32.219,25.549-36.168s34.929,5.84,38.507,21.865-8.144,21.936-25.833,25.886S129.281,643.721,125.7,627.7Z" transform="translate(-78.484 -278.229)" fill="#02a9f3"/>
    <circle id="Ellipse_23" data-name="Ellipse 23" cx="44.317" cy="44.317" r="44.317" transform="translate(30.744 219.023)" fill="#2f2e41"/>
    <rect id="Rectangle_20" data-name="Rectangle 20" width="13.463" height="24.122" transform="translate(54.865 298.12)" fill="#2f2e41"/>
    <rect id="Rectangle_21" data-name="Rectangle 21" width="13.463" height="24.122" transform="translate(81.792 298.12)" fill="#2f2e41"/>
    <ellipse id="Ellipse_24" data-name="Ellipse 24" cx="11.219" cy="4.207" rx="11.219" ry="4.207" transform="translate(54.866 318.314)" fill="#2f2e41"/>
    <ellipse id="Ellipse_25" data-name="Ellipse 25" cx="11.219" cy="4.207" rx="11.219" ry="4.207" transform="translate(81.792 317.754)" fill="#2f2e41"/>
    <circle id="Ellipse_26" data-name="Ellipse 26" cx="15.146" cy="15.146" r="15.146" transform="translate(61.036 236.974)" fill="#fff"/>
    <circle id="Ellipse_27" data-name="Ellipse 27" cx="5.049" cy="5.049" r="5.049" transform="translate(71.134 247.071)" fill="#3f3d56"/>
    <path id="Path_6" data-name="Path 6" d="M98.7,400.7c-3.578-16.026,7.86-32.219,25.549-36.168s34.929,5.84,38.507,21.865-8.145,21.936-25.833,25.886S102.281,416.721,98.7,400.7Z" transform="translate(-66.631 -178.569)" fill="#02a9f3"/>
    <ellipse id="Ellipse_28" data-name="Ellipse 28" cx="6.956" cy="22.158" rx="6.956" ry="22.158" transform="translate(2.144 239.566) rotate(-64.626)" fill="#2f2e41"/>
    <path id="Path_7" data-name="Path 7" d="M137.043,527.446c0,4.337,11.168,12.9,23.561,12.9s24.012-12.211,24.012-16.549-11.619.841-24.012.841S137.043,523.109,137.043,527.446Z" transform="translate(-83.751 -248.119)" fill="#fff"/>
    <rect id="Rectangle_22" data-name="Rectangle 22" width="70.755" height="35.993" transform="translate(468.676 316.785)" fill="#02a9f3"/>
    <rect id="Rectangle_23" data-name="Rectangle 23" width="70.755" height="35.993" transform="translate(463.138 322.63)" fill="none" stroke="#3f3d56" stroke-miterlimit="10" stroke-width="2"/>
    <rect id="Rectangle_24" data-name="Rectangle 24" width="20.195" height="20.195" transform="translate(127.117 111.633)" fill="#ff6584"/>
    <rect id="Rectangle_25" data-name="Rectangle 25" width="20.195" height="20.195" transform="translate(122.069 104.901)" fill="none" stroke="#3f3d56" stroke-miterlimit="10" stroke-width="2"/>
    <circle id="Ellipse_29" data-name="Ellipse 29" cx="44.317" cy="44.317" r="44.317" transform="translate(463.951 61.97)" fill="#2f2e41"/>
    <rect id="Rectangle_26" data-name="Rectangle 26" width="13.463" height="24.122" transform="translate(538.631 160.647) rotate(169.739)" fill="#2f2e41"/>
    <rect id="Rectangle_27" data-name="Rectangle 27" width="13.463" height="24.122" transform="translate(512.135 165.444) rotate(169.739)" fill="#2f2e41"/>
    <ellipse id="Ellipse_30" data-name="Ellipse 30" cx="11.219" cy="4.207" rx="11.219" ry="4.207" transform="translate(491.923 173.67) rotate(-40.261)" fill="#2f2e41"/>
    <ellipse id="Ellipse_31" data-name="Ellipse 31" cx="11.219" cy="4.207" rx="11.219" ry="4.207" transform="translate(517.867 168.974) rotate(-40.261)" fill="#2f2e41"/>
    <circle id="Ellipse_32" data-name="Ellipse 32" cx="15.146" cy="15.146" r="15.146" transform="translate(490.019 80.301)" fill="#fff"/>
    <circle id="Ellipse_33" data-name="Ellipse 33" cx="5.049" cy="5.049" r="5.049" transform="translate(493.891 84.969)" fill="#3f3d56"/>
    <path id="Path_8" data-name="Path 8" d="M959.076,112.929c.667-16.407-13.474-30.3-31.583-31.039s-33.33,11.968-34,28.375,11.922,20.134,30.031,20.87S958.408,129.336,959.076,112.929Z" transform="translate(-415.846 -54.854)" fill="#02a9f3"/>
    <ellipse id="Ellipse_34" data-name="Ellipse 34" cx="6.956" cy="22.158" rx="6.956" ry="22.158" transform="translate(444.194 100.043) rotate(-77.09)" fill="#2f2e41"/>
    <ellipse id="Ellipse_35" data-name="Ellipse 35" cx="6.956" cy="22.158" rx="6.956" ry="22.158" transform="translate(531.185 114.512) rotate(-77.09)" fill="#2f2e41"/>
    <path id="Path_9" data-name="Path 9" d="M954.127,250.2a10.1,10.1,0,1,1-19.872,3.6c-.993-5.487,3.249-7.429,8.737-8.423S953.134,244.713,954.127,250.2Z" transform="translate(-433.688 -126.449)" fill="#fff"/>
    <line id="Line_8" data-name="Line 8" x2="42.297" y2="87.491" transform="translate(408.5 7.313)" fill="none" stroke="#3f3d56" stroke-miterlimit="10" stroke-width="2"/>
    <circle id="Ellipse_36" data-name="Ellipse 36" cx="19.646" cy="19.646" r="19.646" transform="translate(392.481 -10)" fill="#ff6584"/>
    <ellipse id="Ellipse_37" data-name="Ellipse 37" cx="22.158" cy="6.956" rx="22.158" ry="6.956" transform="matrix(0.134, -0.991, 0.991, 0.134, 491.45, 398.622)" fill="#2f2e41"/>
    <circle id="Ellipse_38" data-name="Ellipse 38" cx="7.677" cy="7.677" r="7.677" transform="translate(30.924 433.259)" fill="#02a9f3"/>
    <rect id="Rectangle_28" data-name="Rectangle 28" width="20.195" height="20.195" transform="translate(143.947 431.947)" fill="#ff6584"/>
    <circle id="Ellipse_39" data-name="Ellipse 39" cx="7.677" cy="7.677" r="7.677" transform="translate(136.386 437.747)" fill="#02a9f3"/>
    <circle id="Ellipse_40" data-name="Ellipse 40" cx="7.677" cy="7.677" r="7.677" transform="translate(251.467 135.384)" fill="#02a9f3"/>
    <circle id="Ellipse_41" data-name="Ellipse 41" cx="3.666" cy="3.666" r="3.666" transform="translate(404.563 377.374)" fill="#ff6584"/>
    <line id="Line_9" data-name="Line 9" y1="41.743" transform="translate(426.191 400.147)" fill="#3f3d56" stroke="#3f3d56" stroke-miterlimit="10" stroke-width="2"/>
    <circle id="Ellipse_42" data-name="Ellipse 42" cx="5.903" cy="5.903" r="5.903" transform="translate(420.288 394.244)" fill="#3f3d56"/>
    <path id="Path_10" data-name="Path 10" d="M787.592,780.215s-.843-18.137-18.131-16.029" transform="translate(-361.402 -354.341)" fill="#3f3d56"/>
  </g>
</svg>
