<svg xmlns="http://www.w3.org/2000/svg" width="862.227" height="430.851" viewBox="0 0 862.227 430.851">
  <g id="undraw_server_down_s4lk" transform="translate(45.201 -143.086)">
    <ellipse id="Ellipse_47" data-name="Ellipse 47" cx="251.923" cy="19.376" rx="251.923" ry="19.376" transform="translate(-45.201 535.187)" fill="#3f3d56"/>
    <path id="Path_20" data-name="Path 20" d="M341,360.734s103.4-44.414,109.766,98.7-85.109,183.825-13.522,212.2" transform="matrix(0.766, 0.643, -0.643, 0.766, 447.519, -331.182)" fill="none" stroke="#2f2e41" stroke-miterlimit="10" stroke-width="2"/>
    <circle id="Ellipse_48" data-name="Ellipse 48" cx="2.538" cy="2.538" r="2.538" transform="translate(697.058 198.307)" fill="#f2f2f2"/>
    <circle id="Ellipse_51" data-name="Ellipse 51" cx="66.185" cy="66.185" r="66.185" transform="translate(199.064 398.316)" fill="#2f2e41"/>
    <rect id="Rectangle_48" data-name="Rectangle 48" width="20.107" height="36.025" transform="translate(235.089 516.443)" fill="#2f2e41"/>
    <rect id="Rectangle_49" data-name="Rectangle 49" width="20.107" height="36.025" transform="translate(275.302 516.443)" fill="#2f2e41"/>
    <ellipse id="Ellipse_52" data-name="Ellipse 52" cx="16.756" cy="6.283" rx="16.756" ry="6.283" transform="translate(235.089 546.603)" fill="#2f2e41"/>
    <ellipse id="Ellipse_53" data-name="Ellipse 53" cx="16.756" cy="6.283" rx="16.756" ry="6.283" transform="translate(275.302 545.766)" fill="#2f2e41"/>
    <circle id="Ellipse_54" data-name="Ellipse 54" cx="22.62" cy="22.62" r="22.62" transform="translate(244.304 425.125)" fill="#fff"/>
    <circle id="Ellipse_55" data-name="Ellipse 55" cx="7.54" cy="7.54" r="7.54" transform="translate(259.384 440.205)" fill="#3f3d56"/>
    <path id="Path_29" data-name="Path 29" d="M271.178,554.32c-5.344-23.933,11.739-48.117,38.156-54.016s52.164,8.721,57.509,32.655-12.163,32.76-38.58,38.659S276.522,578.253,271.178,554.32Z" transform="translate(-70.13 -151.369)" fill="#02a9f3"/>
    <ellipse id="Ellipse_56" data-name="Ellipse 56" cx="33.092" cy="10.389" rx="33.092" ry="10.389" transform="translate(288.725 445.219) rotate(-23.171)" fill="#2f2e41"/>
    <ellipse id="Ellipse_57" data-name="Ellipse 57" cx="33.092" cy="10.389" rx="33.092" ry="10.389" transform="translate(164.734 489.621) rotate(-23.171)" fill="#2f2e41"/>
    <path id="Path_30" data-name="Path 30" d="M380.211,660.613c0,6.478-16.679,19.269-35.187,19.269S309,667.928,309,661.451s17.517-5.027,36.025-5.027S380.211,654.135,380.211,660.613Z" transform="translate(-76.425 -176.843)" fill="#fff"/>
    <path id="Path_46" data-name="Path 46" d="M268,178s-22.686-69.108-89.686-113.608S0,0,0,0" transform="matrix(0.848, 0.53, -0.53, 0.848, 205.024, 144.015)" fill="none" stroke="#000" stroke-width="2"/>
    <path id="Path_47" data-name="Path 47" d="M8.368,267.5s-38.962-17.772,0-32.136c79.8-29.422,280.346-73.3,357.737-118.437C480.759,50.052,466.983,0,466.983,0" transform="translate(348.5 181)" fill="none" stroke="#000" stroke-width="2"/>
  </g>
</svg>
