<svg id="web-design" xmlns="http://www.w3.org/2000/svg" width="47.955" height="47.955" viewBox="0 0 47.955 47.955">
  <g id="Group_6" data-name="Group 6" transform="translate(0)">
    <g id="Group_5" data-name="Group 5">
      <path id="Path_31" data-name="Path 31" d="M47.156,41.561h-.8V12.788a3.2,3.2,0,0,0-3.2-3.2h-4.8V3.2a3.2,3.2,0,0,0-3.2-3.2H12.788a3.2,3.2,0,0,0-3.2,3.2V9.591H4.8a3.2,3.2,0,0,0-3.2,3.2V41.561H.8a.8.8,0,0,0-.8.8v2.4a3.2,3.2,0,0,0,3.2,3.2H44.758a3.2,3.2,0,0,0,3.2-3.2v-2.4A.8.8,0,0,0,47.156,41.561ZM11.19,3.2a1.6,1.6,0,0,1,1.6-1.6H35.167a1.6,1.6,0,0,1,1.6,1.6v3.2H11.19Zm0,4.8H36.766V31.171a1.6,1.6,0,0,1-1.6,1.6H12.788a1.6,1.6,0,0,1-1.6-1.6Zm1.6,26.375H35.167a3.2,3.2,0,0,0,3.2-3.2V14.387h3.2V36.766H6.394V14.387h3.2V31.171A3.2,3.2,0,0,0,12.788,34.368ZM3.2,12.788a1.6,1.6,0,0,1,1.6-1.6h4.8v1.6h-4a.8.8,0,0,0-.8.8V37.565a.8.8,0,0,0,.8.8H42.36a.8.8,0,0,0,.8-.8V13.587a.8.8,0,0,0-.8-.8h-4v-1.6h4.8a1.6,1.6,0,0,1,1.6,1.6V41.561H31.171a.8.8,0,0,0-.565.233L29.241,43.16H18.714l-1.364-1.365a.8.8,0,0,0-.565-.233H3.2Zm43.16,31.97a1.6,1.6,0,0,1-1.6,1.6H3.2a1.6,1.6,0,0,1-1.6-1.6v-1.6H16.453l1.364,1.364a.8.8,0,0,0,.565.234h11.19a.8.8,0,0,0,.565-.234L31.5,43.16H46.357Z" transform="translate(0)"/>
    </g>
  </g>
  <g id="Group_8" data-name="Group 8" transform="translate(13.587 25.576)">
    <g id="Group_7" data-name="Group 7">
      <rect id="Rectangle_52" data-name="Rectangle 52" width="20.781" height="1.599" fill="#02a9f3"/>
    </g>
  </g>
  <g id="Group_10" data-name="Group 10" transform="translate(13.587 28.773)">
    <g id="Group_9" data-name="Group 9">
      <rect id="Rectangle_53" data-name="Rectangle 53" width="19.182" height="1.599" fill="#02a9f3"/>
    </g>
  </g>
  <g id="Group_12" data-name="Group 12" transform="translate(18.383 22.379)">
    <g id="Group_11" data-name="Group 11">
      <rect id="Rectangle_54" data-name="Rectangle 54" width="15.985" height="1.599" fill="#02a9f3"/>
    </g>
  </g>
  <g id="Group_14" data-name="Group 14" transform="translate(12.788 3.197)">
    <g id="Group_13" data-name="Group 13">
      <rect id="Rectangle_55" data-name="Rectangle 55" width="1.599" height="1.599" fill="#02a9f3"/>
    </g>
  </g>
  <g id="Group_16" data-name="Group 16" transform="translate(15.985 3.197)">
    <g id="Group_15" data-name="Group 15">
      <rect id="Rectangle_56" data-name="Rectangle 56" width="1.599" height="1.599" fill="#02a9f3"/>
    </g>
  </g>
  <g id="Group_18" data-name="Group 18" transform="translate(19.182 3.197)">
    <g id="Group_17" data-name="Group 17">
      <rect id="Rectangle_57" data-name="Rectangle 57" width="1.599" height="1.599" fill="#02a9f3"/>
    </g>
  </g>
  <g id="Group_20" data-name="Group 20" transform="translate(15.186 22.379)">
    <g id="Group_19" data-name="Group 19">
      <rect id="Rectangle_58" data-name="Rectangle 58" width="1.599" height="1.599" fill="#02a9f3"/>
    </g>
  </g>
  <g id="Group_22" data-name="Group 22" transform="translate(16.784 12.149)">
    <g id="Group_21" data-name="Group 21">
      <path id="Path_32" data-name="Path 32" d="M172.475,122.879l-.959-1.279-3.2,2.4a.8.8,0,0,0,0,1.279l3.2,2.4.959-1.279-2.344-1.758Z" transform="translate(-167.999 -121.6)" fill="#02a9f3"/>
    </g>
  </g>
  <g id="Group_24" data-name="Group 24" transform="translate(26.695 12.149)">
    <g id="Group_23" data-name="Group 23">
      <path id="Path_33" data-name="Path 33" d="M271.516,124.158a.8.8,0,0,0-.16-.16l-3.2-2.4-.959,1.279,2.344,1.758L267.2,126.4l.959,1.279,3.2-2.4A.8.8,0,0,0,271.516,124.158Z" transform="translate(-267.2 -121.6)" fill="#02a9f3"/>
    </g>
  </g>
  <g id="Group_26" data-name="Group 26" transform="translate(21.637 10.894)">
    <g id="Group_25" data-name="Group 25" transform="translate(0 0)">
      <rect id="Rectangle_59" data-name="Rectangle 59" width="8.608" height="1.598" transform="matrix(0.372, -0.928, 0.928, 0.372, 0, 7.992)" fill="#02a9f3"/>
    </g>
  </g>
</svg>
